PathFileType	4	(X/Y/Z)	/Users/itak/Documents/Research/Walk-IL/dataset/trc/00166_00008.trc
DataRate	CameraRate	NumFrames	NumMarkers	Units	OrigDataRate	OrigDataStartFrame	OrigNumFrames
100.000000	100.000000	4	53	mm	100.000000	319	639
Frame#	Time	RPSI			LPSI			L3			STRN			T10			C7			CLAV			RBAK			LBAK			LSHO			LUPA			LAEL			LAOL			LWTS			LWPS			LFRA			LIFD			LHPS			LHTS			RSHO			RUPA			RAEL			RAOL			RWTS			RWPS			RFRA			RIFD			RHTS			RHPS			RBHD			LFHD			RFHD			LBHD			LHIP			RHIP			RASI			LASI			LKNE			LTHI			LANK			LTIP			LTOE			LMT1			LMT5			LHEE			RKNE			RTHI			RANK			RTIP			RTOE			RMT1			RMT5			RHEE			
		X1	Y1	Z1	X2	Y2	Z2	X3	Y3	Z3	X4	Y4	Z4	X5	Y5	Z5	X6	Y6	Z6	X7	Y7	Z7	X8	Y8	Z8	X9	Y9	Z9	X10	Y10	Z10	X11	Y11	Z11	X12	Y12	Z12	X13	Y13	Z13	X14	Y14	Z14	X15	Y15	Z15	X16	Y16	Z16	X17	Y17	Z17	X18	Y18	Z18	X19	Y19	Z19	X20	Y20	Z20	X21	Y21	Z21	X22	Y22	Z22	X23	Y23	Z23	X24	Y24	Z24	X25	Y25	Z25	X26	Y26	Z26	X27	Y27	Z27	X28	Y28	Z28	X29	Y29	Z29	X30	Y30	Z30	X31	Y31	Z31	X32	Y32	Z32	X33	Y33	Z33	X34	Y34	Z34	X35	Y35	Z35	X36	Y36	Z36	X37	Y37	Z37	X38	Y38	Z38	X39	Y39	Z39	X40	Y40	Z40	X41	Y41	Z41	X42	Y42	Z42	X43	Y43	Z43	X44	Y44	Z44	X45	Y45	Z45	X46	Y46	Z46	X47	Y47	Z47	X48	Y48	Z48	X49	Y49	Z49	X50	Y50	Z50	X51	Y51	Z51	X52	Y52	Z52	X53	Y53	Z53	

320	3.19	-1106.431640625	1025.709228515625	-12.63668537139893	-1109.055541992188	1033.109741210938	-135.5566253662109	-1104.82666015625	1069.53564453125	-73.51924133300781	-828.8729858398438	1267.43408203125	-70.52186584472656	-1124.415283203125	1228.4404296875	-88.21788024902344	-1048.909545898438	1496.60009765625	-90.87425231933594	-850.8441162109375	1383.06787109375	-77.05135345458984	-1128.168579101562	1319.051391601562	6.940315723419189	-1048.775024414062	1473.656982421875	-193.8993072509766	-965.4389038085938	1459.312744140625	-266.5412292480469	-986.7024536132812	1328.071166992188	-345.9671020507812	-945.9537353515625	1112.9677734375	-372.8812866210938	-999.140625	1088.359497070312	-305.4033813476562	-779.8268432617188	922.28466796875	-322.0545959472656	-845.431396484375	876.5042724609375	-370.9139404296875	-902.5588989257812	1007.94189453125	-382.7585754394531	-707.3447875976562	757.3492431640625	-291.4280395507812	-801.8062133789062	817.9041748046875	-362.1727905273438	-741.8198852539062	853.8472900390625	-339.7038879394531	-999.488037109375	1464.26318359375	93.19651031494141	-1027.39599609375	1395.64697265625	157.6431579589844	-1062.838012695312	1108.860961914062	196.9564971923828	-1052.319946289062	1101.466918945312	97.96636962890625	-949.0380859375	870.095458984375	205.5625610351562	-1031.620849609375	863.0455932617188	237.318359375	-1048.828491210938	1036.892456054688	218.5234375	-953.9252319335938	678.9332275390625	188.4745483398438	-936.7166748046875	773.5137329101562	219.3952178955078	-1014.640686035156	777.2222900390625	240.6941528320312	-1024.221313476562	1633.668212890625	-3.122680425643921	-868.6168823242188	1723.85546875	-124.847541809082	-868.9146728515625	1711.61083984375	4.286474227905273	-1032.202514648438	1652.361328125	-139.8251800537109	-1012.640991210938	971.8597412109375	-256.2985534667969	-950.3438110351562	980.2080078125	109.1398239135742	-872.2223510742188	1007.170349121094	50.60468673706055	-883.8917236328125	1002.311462402344	-208.1410369873047	-1067.265625	483.6684265136719	-190.5591735839844	-1037.642333984375	622.6256713867188	-225.6291046142578	-1264.9228515625	51.17169189453125	-143.7247161865234	-1163.9111328125	272.9677124023438	-180.0740509033203	-1046.066772460938	40.62979507446289	-130.0751342773438	-1092.00439453125	46.49427032470703	-82.61213684082031	-1163.3330078125	30.07616806030273	-191.3526916503906	-1309.711791992188	67.64908599853516	-71.13518524169922	-773.3259887695312	516.0681762695312	79.62914276123047	-843.1072387695312	772.735595703125	115.3262023925781	-678.1953125	30.87338829040527	67.27003479003906	-723.41259765625	409.2107543945312	64.80029296875	-481.0101318359375	120.4671249389648	49.93947601318359	-524.339599609375	97.07576751708984	0.880879819393158	-572.52490234375	57.18828582763672	106.3530502319336	-724.6571655273438	24.49646186828613	-5.348715305328369	
321	3.2	-1096.117309570312	1025.788208007812	-11.0880012512207	-1098.976928710938	1033.054443359375	-134.0698699951172	-1094.743408203125	1069.509155273438	-72.06296539306641	-819.0396728515625	1267.6376953125	-69.50589752197266	-1114.581298828125	1228.317993164062	-86.581298828125	-1039.400146484375	1496.677490234375	-89.30717468261719	-841.3047485351562	1383.17138671875	-75.95134735107422	-1118.338012695312	1318.89892578125	8.546324729919434	-1039.345336914062	1473.501953125	-192.2610778808594	-956.4566650390625	1459.204223632812	-265.3201599121094	-978.86279296875	1327.65869140625	-344.2218627929688	-940.6458740234375	1112.0302734375	-370.3463134765625	-993.1611938476562	1088.297485351562	-302.2013854980469	-778.111083984375	917.8280639648438	-321.2116394042969	-845.3319702148438	873.5794067382812	-369.2964477539062	-899.5645751953125	1006.285827636719	-380.5555419921875	-709.148193359375	751.1725463867188	-291.5112609863281	-802.9586791992188	814.00634765625	-361.0664978027344	-741.9257202148438	848.5827026367188	-339.4789733886719	-989.68017578125	1464.143676757812	94.70381927490234	-1017.637390136719	1395.480712890625	159.0417327880859	-1054.099609375	1108.884521484375	197.8720703125	-1043.057006835938	1101.456420898438	98.93629455566406	-941.7723388671875	869.4888305664062	207.0511016845703	-1024.600952148438	862.9680786132812	238.2884979248047	-1040.589965820312	1036.891357421875	219.4634399414062	-947.7737426757812	678.3684692382812	190.0364379882812	-930.1817016601562	772.7952880859375	220.9949340820312	-1008.2041015625	777.05908203125	241.7923583984375	-1014.916381835938	1633.371948242188	-1.305205583572388	-859.7291870117188	1724.294921875	-123.0256423950195	-859.783447265625	1711.665283203125	6.075243949890137	-1023.151672363281	1652.412475585938	-137.9442138671875	-1002.735168457031	971.702392578125	-254.8942718505859	-939.5287475585938	980.8692626953125	110.2127380371094	-861.56005859375	1007.44873046875	51.35326766967773	-873.934326171875	1002.363220214844	-207.4106140136719	-1059.442749023438	484.0677795410156	-190.5393371582031	-1029.053100585938	622.9990234375	-225.2684783935547	-1264.079467773438	53.95294570922852	-144.5707855224609	-1159.403564453125	274.6724243164062	-180.5204620361328	-1045.987548828125	40.56439971923828	-130.0777893066406	-1091.65869140625	46.56041717529297	-82.96580505371094	-1162.89501953125	30.32217216491699	-191.3376007080078	-1308.938110351562	72.14400482177734	-72.33345031738281	-763.3869018554688	516.3650512695312	79.45879364013672	-831.63916015625	773.4486083984375	116.2728729248047	-676.8588256835938	30.41906547546387	66.92556762695312	-714.4736328125	408.4189453125	64.24885559082031	-476.5537719726562	113.206428527832	49.27320861816406	-520.4998779296875	90.81963348388672	0.2060456126928329	-570.4926147460938	53.42926025390625	105.6949234008789	-723.3954467773438	25.48051452636719	-5.839091300964355	
322	3.21	-1085.637573242188	1026.228881835938	-9.464363098144531	-1088.652587890625	1033.302612304688	-132.5264434814453	-1084.484741210938	1069.808349609375	-70.55554962158203	-809.07421875	1268.188720703125	-68.40065765380859	-1104.636108398438	1228.466430664062	-84.91597747802734	-1029.808715820312	1497.021850585938	-87.71962738037109	-831.6270751953125	1383.629272460938	-74.78704071044922	-1108.387084960938	1319.052368164062	10.21588706970215	-1029.7841796875	1473.577270507812	-190.5832366943359	-947.3654174804688	1459.38916015625	-264.0547180175781	-970.910888671875	1327.527954101562	-342.3919067382812	-935.2283935546875	1111.425903320312	-367.6506958007812	-987.0126953125	1088.583129882812	-298.8106079101562	-776.7618408203125	913.4032592773438	-320.4218139648438	-845.6950073242188	870.9378662109375	-367.6500244140625	-896.677978515625	1004.964721679688	-378.236328125	-711.7994995117188	744.8768920898438	-291.83056640625	-804.788818359375	810.3163452148438	-360.0216979980469	-742.6219482421875	843.3087768554688	-339.3739624023438	-979.786865234375	1464.369873046875	96.24501800537109	-1007.790222167969	1395.685180664062	160.4903564453125	-1045.244262695312	1109.261596679688	198.8709716796875	-1033.727783203125	1101.80908203125	99.98213195800781	-934.2330932617188	869.2996826171875	208.4844970703125	-1017.248718261719	863.2380981445312	239.2849578857422	-1032.182250976562	1037.232788085938	220.4756622314453	-941.207763671875	678.2323608398438	191.4415283203125	-923.2578735351562	772.5049438476562	222.4702758789062	-1001.376892089844	777.251220703125	242.8550415039062	-1005.564453125	1633.373779296875	0.5307652354240417	-850.776611328125	1725.039916992188	-121.1409530639648	-850.6223754882812	1712.03271484375	7.924628734588623	-1014.016357421875	1652.75537109375	-136.0498199462891	-992.4833374023438	971.7577514648438	-253.3502655029297	-928.587158203125	981.9664306640625	111.3873596191406	-850.792236328125	1008.141967773438	52.22006607055664	-863.7584228515625	1002.714294433594	-206.5284881591797	-1051.196044921875	484.6400146484375	-190.5460357666016	-1020.082946777344	623.562744140625	-224.8779602050781	-1263.063842773438	57.11204147338867	-145.5506744384766	-1154.562377929688	276.6382446289062	-181.0493621826172	-1045.900756835938	40.49860763549805	-130.0937347412109	-1091.252197265625	46.63806533813477	-83.35247039794922	-1162.35107421875	30.66772079467773	-191.3115539550781	-1307.920532226562	77.12088012695312	-73.69234466552734	-753.5114135742188	516.9522705078125	79.32997131347656	-820.1035766601562	774.4673461914062	117.3781433105469	-675.478759765625	30.36173439025879	66.63195037841797	-705.5924072265625	407.9947814941406	63.69191741943359	-472.2234497070312	106.3052520751953	48.55376815795898	-516.85009765625	84.96372985839844	-0.4737603962421417	-568.4488525390625	50.15166854858398	105.0994033813477	-722.1596069335938	26.81339645385742	-6.219875335693359	
323	3.22	-1075.015014648438	1027.018188476562	-7.800978183746338	-1078.068115234375	1033.8486328125	-130.9484710693359	-1074.046997070312	1070.42236328125	-69.02626037597656	-798.9882202148438	1269.08251953125	-67.19851684570312	-1094.58740234375	1228.87890625	-83.24437713623047	-1020.149536132812	1497.619384765625	-86.12075042724609	-821.8316040039062	1384.436767578125	-73.55693817138672	-1098.324829101562	1319.504638671875	11.93723011016846	-1020.113342285156	1473.8994140625	-188.8820343017578	-938.1607666015625	1459.86962890625	-262.7442626953125	-962.8283081054688	1327.693725585938	-340.4967346191406	-929.689208984375	1111.178344726562	-364.8096313476562	-980.7137451171875	1089.272216796875	-295.1992797851562	-775.7733154296875	909.077392578125	-319.6849670410156	-846.4966430664062	868.6534423828125	-365.9627685546875	-893.866455078125	1004.017395019531	-375.8035583496094	-715.2756958007812	738.58154296875	-292.345458984375	-807.2760009765625	806.9222412109375	-359.0173645019531	-743.9078369140625	838.0991821289062	-339.3571472167969	-969.8257446289062	1464.94775390625	97.80592346191406	-997.8651123046875	1396.271728515625	161.9861450195312	-1036.2529296875	1110.00390625	199.9577178955078	-1024.338623046875	1102.539672851562	101.1029510498047	-926.4074096679688	869.5308837890625	209.8607635498047	-1009.54443359375	863.8668212890625	240.3282928466797	-1023.582214355469	1037.931396484375	221.5666198730469	-934.2371826171875	678.5230712890625	192.6894836425781	-915.9456176757812	772.6458129882812	223.8180084228516	-994.1403198242188	777.8054809570312	243.9053497314453	-996.1676025390625	1633.667114257812	2.379050493240356	-841.7581176757812	1726.068969726562	-119.2041320800781	-841.4337158203125	1712.701171875	9.828656196594238	-1004.800231933594	1653.385009765625	-134.1484832763672	-981.863525390625	972.0188598632812	-251.6819610595703	-917.5465698242188	983.4790649414062	112.6492538452148	-839.9482421875	1009.257995605469	53.21517944335938	-853.3695068359375	1003.341003417969	-205.5060119628906	-1042.451416015625	485.3506164550781	-190.5947723388672	-1010.667541503906	624.2899780273438	-224.4480590820312	-1261.84326171875	60.64838790893555	-146.6221008300781	-1149.3330078125	278.8345947265625	-181.6455230712891	-1045.796264648438	40.43010330200195	-130.1220703125	-1090.773193359375	46.71774673461914	-83.74434661865234	-1161.685546875	31.1354866027832	-191.2675933837891	-1306.585815429688	82.56729888916016	-75.14975738525391	-743.6532592773438	517.7957153320312	79.23664855957031	-808.54833984375	775.7731323242188	118.6029586791992	-674.0842895507812	30.57315444946289	66.41759490966797	-696.7589111328125	407.8548583984375	63.13914108276367	-468.1484069824219	99.86808776855469	47.70056915283203	-513.5269775390625	79.61056518554688	-1.221876382827759	-566.4092407226562	47.32942581176758	104.5257720947266	-720.9759521484375	28.302001953125	-6.456358909606934	
